<svg xmlns="http://www.w3.org/2000/svg" xmlns:xlink="http://www.w3.org/1999/xlink" width="100" height="149" version="1.1" viewBox="0 0 100 149"><g id="Page-1" fill="none" fill-rule="evenodd" stroke="none" stroke-width="1"><g id="airpurifier" transform="translate(7.000000, 5.000000)"><path id="Line" stroke="#5BC8FA" stroke-linecap="square" stroke-width="10" d="M-4.26325641e-14,6.22067087 C4.02953795,8.50225516 12.4315562,9.67933849 25.2060547,9.75192087 C32.8391014,9.79529045 51.5791554,2.41088415 63.7714844,0.357389618 C69.2464736,-0.564736121 76.8610569,0.297568567 86.6152344,2.94430368" class="airpurifier_off_grey"/><path id="Line" stroke="#91DBFB" stroke-linecap="square" stroke-width="10" d="M-4.26325641e-14,30.2206709 C4.02953795,32.5022552 12.4315562,33.6793385 25.2060547,33.7519209 C32.8391014,33.7952905 51.5791554,26.4108841 63.7714844,24.3573896 C69.2464736,23.4352639 76.8610569,24.2975686 86.6152344,26.9443037" class="airpurifier_off_grey"/><path id="Line" stroke="#C8EAFE" stroke-linecap="square" stroke-width="10" d="M-4.26325641e-14,54.2206709 C4.02953795,56.5022552 12.4315562,57.6793385 25.2060547,57.7519209 C32.8391014,57.7952905 51.5791554,50.4108841 63.7714844,48.3573896 C69.2464736,47.4352639 76.8610569,48.2975686 86.6152344,50.9443037" class="airpurifier_off_grey"/><polygon id="Path" fill="#C7C5CB" points="17.233 76.791 70.037 76.791 73.943 79.287 76.825 84.965 87.183 114.139 87.183 140.017 85.539 142.175 83.13 143.985 5.217 143.985 2.86 142.75 1.096 140.017 1.096 114.139 10.919 84.965 14.373 79.287" class="airpurifier_off_grey"/><rect id="Rectangle" width="17" height="5" x="46" y="84" fill="#454545" class="airpurifier_off_lgrey"/><rect id="Rectangle" width="20" height="5" x="46" y="94" fill="#454545" class="airpurifier_off_lgrey"/><rect id="Rectangle" width="22" height="5" x="46" y="103" fill="#454545" class="airpurifier_off_lgrey"/><rect id="Rectangle" width="22" height="5" x="20" y="103" fill="#454545" class="airpurifier_off_lgrey"/><rect id="Rectangle" width="20" height="5" x="22" y="94" fill="#454545" class="airpurifier_off_lgrey"/><rect id="Rectangle" width="17" height="5" x="25" y="84" fill="#454545" class="airpurifier_off_lgrey"/></g></g></svg>