<svg xmlns="http://www.w3.org/2000/svg" xmlns:xlink="http://www.w3.org/1999/xlink" width="640" height="640" preserveAspectRatio="xMidYMid meet" version="1.1" viewBox="0 0 640 640"><defs><path id="a16emSr1OF" d="M65 65L565 65L565 565L65 565L65 65Z"/><path id="a1Q7XDVmJL" d="M215 120L415 120L415 520L215 520L215 120Z"/><path id="aI4o4W69" d="M289.99 170.73L414.99 170.72L415.01 469.1L290 469.1L289.99 170.73Z"/><path id="bKSCmHabW" d="M447.32 196.13L320.84 247.23L290 170.89L416.47 119.79L447.32 196.13Z"/><path id="amWNNwFCe" d="M296.54 301.7C297.89 298.37 302.09 296.93 305.93 298.48C309.77 300.03 311.79 303.99 310.45 307.31C309.11 310.64 304.9 312.08 301.06 310.53C297.22 308.98 295.2 305.02 296.54 301.7Z"/><path id="hiueE6AyB" d="M447.33 443.73L320.85 392.63L290 468.97L416.48 520.08L447.33 443.73Z"/><path id="bKLdTBWhx" d="M415 113.14L551.37 113.14L551.37 533.73L415 533.73L415 113.14Z"/></defs><g><g><g><use fill="#666" fill-opacity="1" opacity="1" xlink:href="#a16emSr1OF"/></g><g><use fill="#fff" fill-opacity="1" opacity="1" xlink:href="#a1Q7XDVmJL"/></g><g><use fill="#56d723" fill-opacity="1" opacity="1" xlink:href="#aI4o4W69"/></g><g><use fill="#56d723" fill-opacity="1" opacity="1" xlink:href="#bKSCmHabW"/></g><g><use fill="#666" fill-opacity="1" opacity="1" xlink:href="#amWNNwFCe"/></g><g><use fill="#56d723" fill-opacity="1" opacity="1" xlink:href="#hiueE6AyB"/></g><g><use fill="#666" fill-opacity="1" opacity="1" xlink:href="#bKLdTBWhx"/></g></g></g></svg>