<svg xmlns="http://www.w3.org/2000/svg" xmlns:xlink="http://www.w3.org/1999/xlink" width="456" height="351" version="1.1" viewBox="0 0 456 351"><title>Group</title><g id="Page-1" fill="none" fill-rule="evenodd" stroke="none" stroke-width="1"><g id="Group" transform="translate(0.933594, 0.000000)"><polygon id="Path" fill="#42D653" points="0 350.555 454.617 350.555 454.617 274.223 425.945 312.389 390.387 274.223 360.625 312.389 324.055 274.223 295.98 312.389 260.863 274.223 227.309 312.389 194.145 274.223 162.945 312.389 128.582 274.223 97.902 312.389 62.719 274.223 32.516 312.389 0 274.223" class="valve_off_grey"/><rect id="Rectangle" width="316" height="194" x="69.066" y="0" fill="#C9C7CF" rx="25"/><polygon id="Path-2" fill="#818181" points="279.066 194 279.066 274 296.563 287.825 314.061 274.223 314.061 194"/><polygon id="Path-2" fill="#818181" points="147.066 194 147.066 274 164.563 287.825 182.061 274.223 182.061 194"/><circle id="Oval" cx="305.566" cy="58.5" r="23.5" fill="#818181"/><circle id="Oval" cx="305.566" cy="137.5" r="23.5" fill="#818181"/><g id="1745699" transform="translate(102.066406, 24.000000)"><g id="Group" transform="translate(72.000000, 72.000000) scale(-1, 1) rotate(-180.000000) translate(-72.000000, -72.000000) translate(0.000000, -0.000000)"><circle id="Oval" cx="72" cy="72" r="72" fill="#FFF" class="valve_off_grey"/><path id="Path" fill="#2D98D3" fill-rule="nonzero" d="M70.3295331,120.035764 C62.8539631,110.974335 55.3230185,100.245159 50.0347448,91.1466691 C43.32519,79.6021495 39.310532,69.4196238 38.2861021,61.3032521 C37.6862106,56.4945798 38.0092291,52.9089224 39.5043431,48.0631891 C40.6395223,44.3663486 42.3284473,40.8177522 44.5618893,37.4544612 C46.0385451,35.2307977 47.339848,33.6371722 49.2595005,31.700732 C52.1297503,28.8192347 54.5385451,27.0310386 57.805646,25.3725563 C61.3219327,23.575095 64.718241,22.5837117 68.8805646,22.1111832 C70.1634093,21.9629389 73.8273616,21.9629389 75.1563518,22.1111832 C82.927253,22.9635875 89.4891422,26.2249606 95.0912052,32.0064857 C100.250271,37.3247475 104.006515,44.4960623 105.520087,51.8990086 C106.156895,55.0028722 106.156895,58.847957 105.520087,62.7856944 C103.378936,76.0164922 93.4484256,94.6952654 77.795874,114.912073 C75.5808903,117.784305 72.1292074,122 72.0092291,122 C71.9815418,122 71.2155266,121.110535 70.3295331,120.035764 Z" class="valve_off_grey"/></g></g></g></g></svg>