<svg xmlns="http://www.w3.org/2000/svg" xmlns:xlink="http://www.w3.org/1999/xlink" width="456" height="348" version="1.1" viewBox="0 0 456 348"><title>Group</title><g id="Page-1" fill="none" fill-rule="evenodd" stroke="none" stroke-width="1"><g id="Group" transform="translate(0.933594, 0.000000)"><circle id="Oval" cx="414.066" cy="178" r="15" fill="#2D98D3" class="valve_off_hidden"/><circle id="Oval" cx="84.066" cy="52" r="15" fill="#2D98D3" class="valve_off_hidden"/><circle id="Oval" cx="40.066" cy="178" r="15" fill="#2D98D3" class="valve_off_hidden"/><circle id="Oval" cx="348.566" cy="177.5" r="21.5" fill="#2D98D3" class="valve_off_hidden"/><circle id="Oval" cx="227.066" cy="15" r="15" fill="#2D98D3" class="valve_off_hidden"/><circle id="Oval" cx="370.066" cy="52" r="15" fill="#2D98D3" class="valve_off_hidden"/><circle id="Oval" cx="105.566" cy="177.5" r="21.5" fill="#2D98D3" class="valve_off_hidden"/><circle id="Oval" cx="135.566" cy="101.5" r="21.5" fill="#2D98D3" class="valve_off_hidden"/><circle id="Oval" cx="319.566" cy="100.5" r="21.5" fill="#2D98D3" class="valve_off_hidden"/><circle id="Oval" cx="227.566" cy="79.5" r="21.5" fill="#2D98D3" class="valve_off_hidden"/><polygon id="Path" fill="#42D653" points="0 347.555 454.617 347.555 454.617 271.223 425.945 309.389 390.387 271.223 360.625 309.389 324.055 271.223 295.98 309.389 260.863 271.223 227.309 309.389 194.145 271.223 162.945 309.389 128.582 271.223 97.902 309.389 62.719 271.223 32.516 309.389 0 271.223" class="valve_off_grey"/><rect id="Rectangle" width="108" height="63" x="173.066" y="129" fill="#CF74E6" class="valve_off_grey" rx="3"/><rect id="Rectangle" width="71" height="30" x="192.066" y="190" fill="#CF74E6" class="valve_off_grey" rx="3"/><polygon id="Path-2" fill="#CF74E6" points="210.066 220 210.066 266.638 226.99 285.363 244.229 266.638 244.229 220" class="valve_off_grey"/></g></g></svg>