<svg xmlns="http://www.w3.org/2000/svg" xmlns:xlink="http://www.w3.org/1999/xlink" width="640" height="640" preserveAspectRatio="xMidYMid meet" version="1.1" viewBox="0 0 640 640"><defs><path id="f2pCRcSgv" d="M506.35 123.61L506.35 506.98L133.65 506.98L133.65 123.61L506.35 123.61M112.94 536.47L527.06 536.47L527.06 94.12L527.06 94.12L112.94 94.12L112.94 536.47Z"/><path id="jvy0XBu5M" d="M506.35 123.61L506.35 506.98L133.65 506.98L133.65 123.61L506.35 123.61M112.94 536.47L527.06 536.47L527.06 94.12L527.06 94.12L112.94 94.12L112.94 536.47Z"/><path id="eTErwsP1o" d="M329.41 94.12C329.41 359.53 329.41 506.98 329.41 536.47C329.41 536.47 329.41 536.47 329.41 536.47C318.12 536.47 311.84 536.47 310.59 536.47C310.59 536.47 310.59 536.47 310.59 536.47C310.59 271.06 310.59 123.61 310.59 94.12C310.59 94.12 310.59 94.12 310.59 94.12C321.88 94.12 328.16 94.12 329.41 94.12C329.41 94.12 329.41 94.12 329.41 94.12Z"/><path id="f1QuyuvIlz" d="M329.41 94.12C329.41 359.53 329.41 506.98 329.41 536.47C329.41 536.47 329.41 536.47 329.41 536.47C318.12 536.47 311.84 536.47 310.59 536.47C310.59 536.47 310.59 536.47 310.59 536.47C310.59 271.06 310.59 123.61 310.59 94.12C310.59 94.12 310.59 94.12 310.59 94.12C321.88 94.12 328.16 94.12 329.41 94.12C329.41 94.12 329.41 94.12 329.41 94.12Z"/></defs><g><g><g><use fill="#666" fill-opacity="1" opacity="1" xlink:href="#f2pCRcSgv"/><g><use fill-opacity="0" stroke="#000" stroke-opacity="0" stroke-width="1" opacity="1" xlink:href="#f2pCRcSgv"/></g></g><g><use fill="#666" fill-opacity="0" opacity="1" xlink:href="#jvy0XBu5M"/><g><use fill-opacity="0" stroke="#000" stroke-opacity="0" stroke-width="1" opacity="1" xlink:href="#jvy0XBu5M"/></g></g><g><use fill="#666" fill-opacity="1" opacity="1" xlink:href="#eTErwsP1o"/><g><use fill-opacity="0" stroke="#000" stroke-opacity="0" stroke-width="1" opacity="1" xlink:href="#eTErwsP1o"/></g></g><g><use fill="#000" fill-opacity="0" opacity="1" xlink:href="#f1QuyuvIlz"/><g><use fill-opacity="0" stroke="#000" stroke-opacity="0" stroke-width="1" opacity="1" xlink:href="#f1QuyuvIlz"/></g></g></g></g></svg>