<svg xmlns="http://www.w3.org/2000/svg" xmlns:xlink="http://www.w3.org/1999/xlink" width="640" height="640" preserveAspectRatio="xMidYMid meet" version="1.1" viewBox="0 0 640 640"><defs><path id="b4Fl6hSQ5v" d="M506.35 123.61L506.35 506.98L133.65 506.98L133.65 123.61L506.35 123.61M112.94 94.12L112.94 536.47L527.06 536.47L527.06 94.12L527.06 94.12L112.94 94.12Z"/><path id="e29097qVAi" d="M247.89 467.69C247.89 467.69 247.89 467.69 247.89 467.69C170.82 495.74 128 511.32 119.44 514.43C119.44 514.43 119.44 514.43 119.44 514.43C115.58 503.82 113.43 497.92 113 496.75C113 496.75 113 496.75 113 496.75C190.07 468.7 232.89 453.12 241.45 450C241.45 450 241.45 450 241.45 450C245.31 460.61 247.46 466.51 247.89 467.69Z"/><path id="b4gFt7F5c5" d="M247.63 150.94C247.63 150.94 247.63 150.94 247.63 150.94C247.73 340.57 247.79 445.92 247.8 466.99C247.8 466.99 247.8 466.99 247.8 466.99C236.5 467 230.23 467 228.97 467C228.97 467 228.97 467 228.97 467C228.87 277.37 228.82 172.02 228.81 150.95C228.81 150.95 228.81 150.95 228.81 150.95C240.1 150.95 246.38 150.95 247.63 150.94Z"/><path id="a16AiNZUmY" d="M241.45 169.44C241.45 169.44 241.45 169.44 241.45 169.44C164.38 141.39 121.57 125.8 113 122.69C113 122.69 113 122.69 113 122.69C116.87 112.07 119.01 106.18 119.44 105C119.44 105 119.44 105 119.44 105C196.51 133.05 239.32 148.64 247.89 151.75C247.89 151.75 247.89 151.75 247.89 151.75C244.02 162.36 241.88 168.26 241.45 169.44Z"/><path id="b1uuBEfib" d="M519.45 514.43C519.45 514.43 519.45 514.43 519.45 514.43C442.38 486.38 399.56 470.8 391 467.69C391 467.69 391 467.69 391 467.69C394.86 457.08 397.01 451.18 397.44 450C397.44 450 397.44 450 397.44 450C474.51 478.04 517.32 493.62 525.89 496.74C525.89 496.74 525.89 496.74 525.89 496.74C522.02 507.35 519.88 513.25 519.45 514.43Z"/><path id="bAmqCK33" d="M410.48 151.94C410.48 151.94 410.48 151.94 410.48 151.94C410.57 341.57 410.63 446.92 410.64 467.99C410.64 467.99 410.64 467.99 410.64 467.99C399.35 468 393.07 468 391.82 468C391.82 468 391.82 468 391.82 468C391.72 278.37 391.66 173.02 391.65 151.95C391.65 151.95 391.65 151.95 391.65 151.95C402.95 151.95 409.22 151.95 410.48 151.94Z"/><path id="c3F93mW3Nx" d="M525.88 122.69C525.88 122.69 525.88 122.69 525.88 122.69C448.81 150.74 406 166.32 397.43 169.44C397.43 169.44 397.43 169.44 397.43 169.44C393.57 158.82 391.43 152.93 391 151.75C391 151.75 391 151.75 391 151.75C468.07 123.7 510.88 108.12 519.44 105C519.44 105 519.44 105 519.44 105C523.31 115.61 525.45 121.51 525.88 122.69Z"/></defs><g><g><g><use fill="#f9bd2b" fill-opacity="1" opacity="1" xlink:href="#b4Fl6hSQ5v"/><g><use fill-opacity="0" stroke="#000" stroke-opacity="0" stroke-width="1" opacity="1" xlink:href="#b4Fl6hSQ5v"/></g></g><g><use fill="#f9bd2b" fill-opacity="1" opacity="1" xlink:href="#e29097qVAi"/><g><use fill-opacity="0" stroke="#000" stroke-opacity="0" stroke-width="1" opacity="1" xlink:href="#e29097qVAi"/></g></g><g><use fill="#f9bd2b" fill-opacity="1" opacity="1" xlink:href="#b4gFt7F5c5"/><g><use fill-opacity="0" stroke="#000" stroke-opacity="0" stroke-width="1" opacity="1" xlink:href="#b4gFt7F5c5"/></g></g><g><use fill="#f9bd2b" fill-opacity="1" opacity="1" xlink:href="#a16AiNZUmY"/><g><use fill-opacity="0" stroke="#000" stroke-opacity="0" stroke-width="1" opacity="1" xlink:href="#a16AiNZUmY"/></g></g><g><use fill="#f9bd2b" fill-opacity="1" opacity="1" xlink:href="#b1uuBEfib"/><g><use fill-opacity="0" stroke="#000" stroke-opacity="0" stroke-width="1" opacity="1" xlink:href="#b1uuBEfib"/></g></g><g><use fill="#f9bd2b" fill-opacity="1" opacity="1" xlink:href="#bAmqCK33"/><g><use fill-opacity="0" stroke="#000" stroke-opacity="0" stroke-width="1" opacity="1" xlink:href="#bAmqCK33"/></g></g><g><use fill="#f9bd2b" fill-opacity="1" opacity="1" xlink:href="#c3F93mW3Nx"/><g><use fill-opacity="0" stroke="#000" stroke-opacity="0" stroke-width="1" opacity="1" xlink:href="#c3F93mW3Nx"/></g></g></g></g></svg>